<?xml version="1.0" encoding="UTF-8" standalone="no"?>
<svg
   xmlns:dc="http://purl.org/dc/elements/1.1/"
   xmlns:cc="http://creativecommons.org/ns#"
   xmlns:rdf="http://www.w3.org/1999/02/22-rdf-syntax-ns#"
   xmlns:svg="http://www.w3.org/2000/svg"
   xmlns="http://www.w3.org/2000/svg"
   xmlns:sodipodi="http://sodipodi.sourceforge.net/DTD/sodipodi-0.dtd"
   xmlns:inkscape="http://www.inkscape.org/namespaces/inkscape"
   inkscape:export-ydpi="96"
   inkscape:export-xdpi="96"
   inkscape:export-filename="C:\Users\Joe\Desktop\MagRobotPrinter\client side\jellya\jellya_a1.png"
   sodipodi:docname="jellya.svg"
   inkscape:version="1.0 (4035a4fb49, 2020-05-01)"
   id="svg8"
   version="1.1"
   viewBox="0 0 507.99999 285.75001"
   height="1080"
   width="1920">
  <defs
     id="defs2">
    <inkscape:path-effect
       is_visible="true"
       id="path-effect1379"
       effect="spiro" />
    <inkscape:path-effect
       is_visible="true"
       id="path-effect1375"
       effect="spiro" />
    <inkscape:path-effect
       is_visible="true"
       id="path-effect1334"
       effect="spiro" />
    <marker
       inkscape:stockid="Arrow2Sstart"
       orient="auto"
       refY="0"
       refX="0"
       id="marker8721"
       style="overflow:visible"
       inkscape:isstock="true">
      <path
         inkscape:connector-curvature="0"
         id="path8719"
         style="fill:#ec0000;fill-opacity:1;fill-rule:evenodd;stroke:#ec0000;stroke-width:0.625;stroke-linejoin:round;stroke-opacity:1"
         d="M 8.7185878,4.0337352 -2.2072895,0.01601326 8.7185884,-4.0017078 c -1.7454984,2.3720609 -1.7354408,5.6174519 -6e-7,8.035443 z"
         transform="matrix(0.3,0,0,0.3,-0.69,0)" />
    </marker>
    <marker
       inkscape:stockid="Arrow2Sstart"
       orient="auto"
       refY="0"
       refX="0"
       id="marker6885"
       style="overflow:visible"
       inkscape:isstock="true">
      <path
         id="path6883"
         style="fill:#ec0000;fill-opacity:1;fill-rule:evenodd;stroke:#ec0000;stroke-width:0.625;stroke-linejoin:round;stroke-opacity:1"
         d="M 8.7185878,4.0337352 -2.2072895,0.01601326 8.7185884,-4.0017078 c -1.7454984,2.3720609 -1.7354408,5.6174519 -6e-7,8.035443 z"
         transform="matrix(0.3,0,0,0.3,-0.69,0)"
         inkscape:connector-curvature="0" />
    </marker>
    <marker
       inkscape:stockid="Arrow2Sstart"
       orient="auto"
       refY="0"
       refX="0"
       id="marker6006"
       style="overflow:visible"
       inkscape:isstock="true">
      <path
         id="path6004"
         style="fill:#ec0000;fill-opacity:1;fill-rule:evenodd;stroke:#ec0000;stroke-width:0.625;stroke-linejoin:round;stroke-opacity:1"
         d="M 8.7185878,4.0337352 -2.2072895,0.01601326 8.7185884,-4.0017078 c -1.7454984,2.3720609 -1.7354408,5.6174519 -6e-7,8.035443 z"
         transform="matrix(0.3,0,0,0.3,-0.69,0)"
         inkscape:connector-curvature="0" />
    </marker>
    <marker
       inkscape:isstock="true"
       style="overflow:visible"
       id="marker5606"
       refX="0"
       refY="0"
       orient="auto"
       inkscape:stockid="Arrow2Sstart">
      <path
         transform="matrix(0.3,0,0,0.3,-0.69,0)"
         d="M 8.7185878,4.0337352 -2.2072895,0.01601326 8.7185884,-4.0017078 c -1.7454984,2.3720609 -1.7354408,5.6174519 -6e-7,8.035443 z"
         style="fill:#ec0000;fill-opacity:1;fill-rule:evenodd;stroke:#ec0000;stroke-width:0.625;stroke-linejoin:round;stroke-opacity:1"
         id="path5604"
         inkscape:connector-curvature="0" />
    </marker>
    <marker
       inkscape:stockid="Arrow2Sstart"
       orient="auto"
       refY="0"
       refX="0"
       id="marker7580"
       style="overflow:visible"
       inkscape:isstock="true">
      <path
         inkscape:connector-curvature="0"
         id="path7578"
         style="fill:#ec0000;fill-opacity:1;fill-rule:evenodd;stroke:#ec0000;stroke-width:0.625;stroke-linejoin:round;stroke-opacity:1"
         d="M 8.7185878,4.0337352 -2.2072895,0.01601326 8.7185884,-4.0017078 c -1.7454984,2.3720609 -1.7354408,5.6174519 -6e-7,8.035443 z"
         transform="matrix(0.3,0,0,0.3,-0.69,0)" />
    </marker>
    <marker
       inkscape:stockid="Arrow2Sstart"
       orient="auto"
       refY="0"
       refX="0"
       id="marker7192"
       style="overflow:visible"
       inkscape:isstock="true">
      <path
         inkscape:connector-curvature="0"
         id="path7190"
         style="fill:#ec0000;fill-opacity:1;fill-rule:evenodd;stroke:#ec0000;stroke-width:0.625;stroke-linejoin:round;stroke-opacity:1"
         d="M 8.7185878,4.0337352 -2.2072895,0.01601326 8.7185884,-4.0017078 c -1.7454984,2.3720609 -1.7354408,5.6174519 -6e-7,8.035443 z"
         transform="matrix(0.3,0,0,0.3,-0.69,0)" />
    </marker>
    <marker
       inkscape:isstock="true"
       style="overflow:visible"
       id="marker5602"
       refX="0"
       refY="0"
       orient="auto"
       inkscape:stockid="Arrow2Sstart">
      <path
         inkscape:connector-curvature="0"
         transform="matrix(0.3,0,0,0.3,-0.69,0)"
         d="M 8.7185878,4.0337352 -2.2072895,0.01601326 8.7185884,-4.0017078 c -1.7454984,2.3720609 -1.7354408,5.6174519 -6e-7,8.035443 z"
         style="fill:#ec0000;fill-opacity:1;fill-rule:evenodd;stroke:#ec0000;stroke-width:0.625;stroke-linejoin:round;stroke-opacity:1"
         id="path5600" />
    </marker>
    <marker
       inkscape:isstock="true"
       style="overflow:visible"
       id="marker3790"
       refX="0"
       refY="0"
       orient="auto"
       inkscape:stockid="Arrow2Sstart">
      <path
         inkscape:connector-curvature="0"
         transform="matrix(0.3,0,0,0.3,-0.69,0)"
         d="M 8.7185878,4.0337352 -2.2072895,0.01601326 8.7185884,-4.0017078 c -1.7454984,2.3720609 -1.7354408,5.6174519 -6e-7,8.035443 z"
         style="fill:#ec0000;fill-opacity:1;fill-rule:evenodd;stroke:#ec0000;stroke-width:0.625;stroke-linejoin:round;stroke-opacity:1"
         id="path3788" />
    </marker>
    <marker
       inkscape:stockid="Arrow2Sstart"
       orient="auto"
       refY="0.0"
       refX="0.0"
       id="marker1608"
       style="overflow:visible"
       inkscape:isstock="true">
      <path
         id="path1606"
         style="fill-rule:evenodd;stroke-width:0.625;stroke-linejoin:round;stroke:#ec0000;stroke-opacity:1;fill:#ec0000;fill-opacity:1"
         d="M 8.7185878,4.0337352 L -2.2072895,0.016013256 L 8.7185884,-4.0017078 C 6.9730900,-1.6296469 6.9831476,1.6157441 8.7185878,4.0337352 z "
         transform="scale(0.3) translate(-2.3,0)" />
    </marker>
    <marker
       inkscape:stockid="Arrow2Sstart"
       orient="auto"
       refY="0.0"
       refX="0.0"
       id="marker1418"
       style="overflow:visible"
       inkscape:isstock="true">
      <path
         id="path1416"
         style="fill-rule:evenodd;stroke-width:0.625;stroke-linejoin:round;stroke:#ec0000;stroke-opacity:1;fill:#ec0000;fill-opacity:1"
         d="M 8.7185878,4.0337352 L -2.2072895,0.016013256 L 8.7185884,-4.0017078 C 6.9730900,-1.6296469 6.9831476,1.6157441 8.7185878,4.0337352 z "
         transform="scale(0.3) translate(-2.3,0)" />
    </marker>
    <marker
       inkscape:isstock="true"
       style="overflow:visible"
       id="marker1234"
       refX="0.0"
       refY="0.0"
       orient="auto"
       inkscape:stockid="Arrow2Sstart">
      <path
         transform="scale(0.3) translate(-2.3,0)"
         d="M 8.7185878,4.0337352 L -2.2072895,0.016013256 L 8.7185884,-4.0017078 C 6.9730900,-1.6296469 6.9831476,1.6157441 8.7185878,4.0337352 z "
         style="fill-rule:evenodd;stroke-width:0.625;stroke-linejoin:round;stroke:#ec0000;stroke-opacity:1;fill:#ec0000;fill-opacity:1"
         id="path1232" />
    </marker>
    <marker
       inkscape:isstock="true"
       style="overflow:visible"
       id="marker9914"
       refX="0.0"
       refY="0.0"
       orient="auto"
       inkscape:stockid="Arrow2Sstart">
      <path
         transform="scale(0.3) translate(-2.3,0)"
         d="M 8.7185878,4.0337352 L -2.2072895,0.016013256 L 8.7185884,-4.0017078 C 6.9730900,-1.6296469 6.9831476,1.6157441 8.7185878,4.0337352 z "
         style="fill-rule:evenodd;stroke-width:0.625;stroke-linejoin:round;stroke:#ec0000;stroke-opacity:1;fill:#ec0000;fill-opacity:1"
         id="path9912" />
    </marker>
    <marker
       inkscape:isstock="true"
       style="overflow:visible"
       id="marker8744"
       refX="0.0"
       refY="0.0"
       orient="auto"
       inkscape:stockid="Arrow2Sstart">
      <path
         transform="scale(0.3) translate(-2.3,0)"
         d="M 8.7185878,4.0337352 L -2.2072895,0.016013256 L 8.7185884,-4.0017078 C 6.9730900,-1.6296469 6.9831476,1.6157441 8.7185878,4.0337352 z "
         style="fill-rule:evenodd;stroke-width:0.625;stroke-linejoin:round;stroke:#ec0000;stroke-opacity:1;fill:#ec0000;fill-opacity:1"
         id="path8742" />
    </marker>
    <marker
       inkscape:stockid="Arrow2Sstart"
       orient="auto"
       refY="0.0"
       refX="0.0"
       id="marker8578"
       style="overflow:visible"
       inkscape:isstock="true">
      <path
         id="path8576"
         style="fill-rule:evenodd;stroke-width:0.625;stroke-linejoin:round;stroke:#ec0000;stroke-opacity:1;fill:#ec0000;fill-opacity:1"
         d="M 8.7185878,4.0337352 L -2.2072895,0.016013256 L 8.7185884,-4.0017078 C 6.9730900,-1.6296469 6.9831476,1.6157441 8.7185878,4.0337352 z "
         transform="scale(0.3) translate(-2.3,0)" />
    </marker>
    <marker
       inkscape:stockid="Arrow2Sstart"
       orient="auto"
       refY="0.0"
       refX="0.0"
       id="marker8106"
       style="overflow:visible"
       inkscape:isstock="true">
      <path
         id="path8104"
         style="fill-rule:evenodd;stroke-width:0.625;stroke-linejoin:round;stroke:#ec0000;stroke-opacity:1;fill:#ec0000;fill-opacity:1"
         d="M 8.7185878,4.0337352 L -2.2072895,0.016013256 L 8.7185884,-4.0017078 C 6.9730900,-1.6296469 6.9831476,1.6157441 8.7185878,4.0337352 z "
         transform="scale(0.3) translate(-2.3,0)" />
    </marker>
    <marker
       inkscape:isstock="true"
       style="overflow:visible"
       id="marker5686"
       refX="0.0"
       refY="0.0"
       orient="auto"
       inkscape:stockid="Arrow2Sstart">
      <path
         transform="scale(0.3) translate(-2.3,0)"
         d="M 8.7185878,4.0337352 L -2.2072895,0.016013256 L 8.7185884,-4.0017078 C 6.9730900,-1.6296469 6.9831476,1.6157441 8.7185878,4.0337352 z "
         style="fill-rule:evenodd;stroke-width:0.625;stroke-linejoin:round;stroke:#ec0000;stroke-opacity:1;fill:#ec0000;fill-opacity:1"
         id="path5684" />
    </marker>
    <marker
       inkscape:isstock="true"
       style="overflow:visible"
       id="marker1406"
       refX="0.0"
       refY="0.0"
       orient="auto"
       inkscape:stockid="Arrow1Sstart">
      <path
         transform="scale(0.2) translate(6,0)"
         style="fill-rule:evenodd;stroke:#ec0000;stroke-width:1pt;stroke-opacity:1;fill:#ec0000;fill-opacity:1"
         d="M 0.0,0.0 L 5.0,-5.0 L -12.5,0.0 L 5.0,5.0 L 0.0,0.0 z "
         id="path1404" />
    </marker>
    <marker
       inkscape:isstock="true"
       style="overflow:visible"
       id="Arrow1Sstart"
       refX="0.0"
       refY="0.0"
       orient="auto"
       inkscape:stockid="Arrow1Sstart">
      <path
         transform="scale(0.2) translate(6,0)"
         style="fill-rule:evenodd;stroke:#ec0000;stroke-width:1pt;stroke-opacity:1;fill:#ec0000;fill-opacity:1"
         d="M 0.0,0.0 L 5.0,-5.0 L -12.5,0.0 L 5.0,5.0 L 0.0,0.0 z "
         id="path987" />
    </marker>
    <marker
       inkscape:isstock="true"
       style="overflow:visible"
       id="marker1238"
       refX="0.0"
       refY="0.0"
       orient="auto"
       inkscape:stockid="Arrow1Lstart">
      <path
         transform="scale(0.8) translate(12.5,0)"
         style="fill-rule:evenodd;stroke:#ec0000;stroke-width:1pt;stroke-opacity:1;fill:#ec0000;fill-opacity:1"
         d="M 0.0,0.0 L 5.0,-5.0 L -12.5,0.0 L 5.0,5.0 L 0.0,0.0 z "
         id="path975" />
    </marker>
    <marker
       inkscape:isstock="true"
       style="overflow:visible;"
       id="marker1208"
       refX="0.0"
       refY="0.0"
       orient="auto"
       inkscape:stockid="Arrow1Lend">
      <path
         transform="scale(0.8) rotate(180) translate(12.5,0)"
         style="fill-rule:evenodd;stroke:#000000;stroke-width:1.0pt;"
         d="M 0.0,0.0 L 5.0,-5.0 L -12.5,0.0 L 5.0,5.0 L 0.0,0.0 z "
         id="path945" />
    </marker>
    <marker
       inkscape:isstock="true"
       style="overflow:visible"
       id="marker1205"
       refX="0.0"
       refY="0.0"
       orient="auto"
       inkscape:stockid="Arrow1Lstart">
      <path
         transform="scale(0.8) translate(12.5,0)"
         style="fill-rule:evenodd;stroke:#000000;stroke-width:1.0pt"
         d="M 0.0,0.0 L 5.0,-5.0 L -12.5,0.0 L 5.0,5.0 L 0.0,0.0 z "
         id="path942" />
    </marker>
    <marker
       inkscape:isstock="true"
       style="overflow:visible;"
       id="Arrow2Send"
       refX="0.0"
       refY="0.0"
       orient="auto"
       inkscape:stockid="Arrow2Send">
      <path
         transform="scale(0.3) rotate(180) translate(-2.3,0)"
         d="M 8.7185878,4.0337352 L -2.2072895,0.016013256 L 8.7185884,-4.0017078 C 6.9730900,-1.6296469 6.9831476,1.6157441 8.7185878,4.0337352 z "
         style="fill-rule:evenodd;stroke-width:0.625;stroke-linejoin:round;stroke:none;stroke-opacity:1;fill:#000000;fill-opacity:1"
         id="path4572" />
    </marker>
    <marker
       inkscape:isstock="true"
       style="overflow:visible;"
       id="Arrow1Lend"
       refX="0.0"
       refY="0.0"
       orient="auto"
       inkscape:stockid="Arrow1Lend">
      <path
         transform="scale(0.8) rotate(180) translate(12.5,0)"
         style="fill-rule:evenodd;stroke:#000000;stroke-width:1pt;stroke-opacity:1;fill:#000000;fill-opacity:1"
         d="M 0.0,0.0 L 5.0,-5.0 L -12.5,0.0 L 5.0,5.0 L 0.0,0.0 z "
         id="path4542" />
    </marker>
    <marker
       inkscape:isstock="true"
       style="overflow:visible"
       id="Arrow1Lstart"
       refX="0.0"
       refY="0.0"
       orient="auto"
       inkscape:stockid="Arrow1Lstart">
      <path
         transform="scale(0.8) translate(12.5,0)"
         style="fill-rule:evenodd;stroke:#000000;stroke-width:1pt;stroke-opacity:1;fill:#000000;fill-opacity:1"
         d="M 0.0,0.0 L 5.0,-5.0 L -12.5,0.0 L 5.0,5.0 L 0.0,0.0 z "
         id="path4539" />
    </marker>
    <marker
       inkscape:isstock="true"
       style="overflow:visible"
       id="Arrow2Lstart"
       refX="0.0"
       refY="0.0"
       orient="auto"
       inkscape:stockid="Arrow2Lstart">
      <path
         transform="scale(1.1) translate(1,0)"
         d="M 8.7185878,4.0337352 L -2.2072895,0.016013256 L 8.7185884,-4.0017078 C 6.9730900,-1.6296469 6.9831476,1.6157441 8.7185878,4.0337352 z "
         style="fill-rule:evenodd;stroke-width:0.625;stroke-linejoin:round;stroke:#000000;stroke-opacity:1;fill:#000000;fill-opacity:1"
         id="path4557" />
    </marker>
    <marker
       inkscape:isstock="true"
       style="overflow:visible"
       id="DiamondL"
       refX="0.0"
       refY="0.0"
       orient="auto"
       inkscape:stockid="DiamondL">
      <path
         transform="scale(0.8)"
         style="fill-rule:evenodd;stroke:#000000;stroke-width:1pt;stroke-opacity:1;fill:#000000;fill-opacity:1"
         d="M 0,-7.0710768 L -7.0710894,0 L 0,7.0710589 L 7.0710462,0 L 0,-7.0710768 z "
         id="path4618" />
    </marker>
    <marker
       inkscape:isstock="true"
       style="overflow:visible"
       id="SemiCircleIn"
       refX="0.0"
       refY="0.0"
       orient="auto"
       inkscape:stockid="SemiCircleIn">
      <path
         transform="scale(0.6)"
         style="fill-rule:evenodd;stroke:#ffffff;stroke-width:1pt;stroke-opacity:1;fill:#ffffff;fill-opacity:1"
         d="M -0.37450702,-0.045692580 C -0.37450702,2.7143074 1.8654930,4.9543074 4.6254930,4.9543074 L 4.6254930,-5.0456926 C 1.8654930,-5.0456926 -0.37450702,-2.8056926 -0.37450702,-0.045692580 z "
         id="path1616" />
    </marker>
    <marker
       inkscape:isstock="true"
       style="overflow:visible"
       id="DotS"
       refX="0.0"
       refY="0.0"
       orient="auto"
       inkscape:stockid="DotS">
      <path
         transform="scale(0.2) translate(7.4, 1)"
         style="fill-rule:evenodd;stroke:#ffffff;stroke-width:1pt;stroke-opacity:1;fill:#ffffff;fill-opacity:1"
         d="M -2.5,-1.0 C -2.5,1.7600000 -4.7400000,4.0 -7.5,4.0 C -10.260000,4.0 -12.5,1.7600000 -12.5,-1.0 C -12.5,-3.7600000 -10.260000,-6.0 -7.5,-6.0 C -4.7400000,-6.0 -2.5,-3.7600000 -2.5,-1.0 z "
         id="path1505" />
    </marker>
    <marker
       inkscape:isstock="true"
       style="overflow:visible"
       id="DotL"
       refX="0.0"
       refY="0.0"
       orient="auto"
       inkscape:stockid="DotL">
      <path
         transform="scale(0.8) translate(7.4, 1)"
         style="fill-rule:evenodd;stroke:#ffffff;stroke-width:1pt;stroke-opacity:1;fill:#ffffff;fill-opacity:1"
         d="M -2.5,-1.0 C -2.5,1.7600000 -4.7400000,4.0 -7.5,4.0 C -10.260000,4.0 -12.5,1.7600000 -12.5,-1.0 C -12.5,-3.7600000 -10.260000,-6.0 -7.5,-6.0 C -4.7400000,-6.0 -2.5,-3.7600000 -2.5,-1.0 z "
         id="path1499" />
    </marker>
    <marker
       inkscape:stockid="Arrow2Sstart"
       orient="auto"
       refY="0"
       refX="0"
       id="marker8106-2"
       style="overflow:visible"
       inkscape:isstock="true">
      <path
         id="path8104-8"
         style="fill:#ec0000;fill-opacity:1;fill-rule:evenodd;stroke:#ec0000;stroke-width:0.625;stroke-linejoin:round;stroke-opacity:1"
         d="M 8.7185878,4.0337352 -2.2072895,0.01601326 8.7185884,-4.0017078 c -1.7454984,2.3720609 -1.7354408,5.6174519 -6e-7,8.035443 z"
         transform="matrix(0.3,0,0,0.3,-0.69,0)"
         inkscape:connector-curvature="0" />
    </marker>
    <marker
       inkscape:isstock="true"
       style="overflow:visible"
       id="marker9914-1"
       refX="0"
       refY="0"
       orient="auto"
       inkscape:stockid="Arrow2Sstart">
      <path
         transform="matrix(0.3,0,0,0.3,-0.69,0)"
         d="M 8.7185878,4.0337352 -2.2072895,0.01601326 8.7185884,-4.0017078 c -1.7454984,2.3720609 -1.7354408,5.6174519 -6e-7,8.035443 z"
         style="fill:#ec0000;fill-opacity:1;fill-rule:evenodd;stroke:#ec0000;stroke-width:0.625;stroke-linejoin:round;stroke-opacity:1"
         id="path9912-4"
         inkscape:connector-curvature="0" />
    </marker>
    <marker
       inkscape:isstock="true"
       style="overflow:visible"
       id="marker5602-1"
       refX="0"
       refY="0"
       orient="auto"
       inkscape:stockid="Arrow2Sstart">
      <path
         inkscape:connector-curvature="0"
         transform="matrix(0.3,0,0,0.3,-0.69,0)"
         d="M 8.7185878,4.0337352 -2.2072895,0.01601326 8.7185884,-4.0017078 c -1.7454984,2.3720609 -1.7354408,5.6174519 -6e-7,8.035443 z"
         style="fill:#ec0000;fill-opacity:1;fill-rule:evenodd;stroke:#ec0000;stroke-width:0.625;stroke-linejoin:round;stroke-opacity:1"
         id="path5600-2" />
    </marker>
    <marker
       inkscape:isstock="true"
       style="overflow:visible"
       id="marker5606-2"
       refX="0"
       refY="0"
       orient="auto"
       inkscape:stockid="Arrow2Sstart">
      <path
         transform="matrix(0.3,0,0,0.3,-0.69,0)"
         d="M 8.7185878,4.0337352 -2.2072895,0.01601326 8.7185884,-4.0017078 c -1.7454984,2.3720609 -1.7354408,5.6174519 -6e-7,8.035443 z"
         style="fill:#ec0000;fill-opacity:1;fill-rule:evenodd;stroke:#ec0000;stroke-width:0.625;stroke-linejoin:round;stroke-opacity:1"
         id="path5604-5"
         inkscape:connector-curvature="0" />
    </marker>
    <marker
       inkscape:stockid="Arrow2Sstart"
       orient="auto"
       refY="0"
       refX="0"
       id="marker6006-4"
       style="overflow:visible"
       inkscape:isstock="true">
      <path
         id="path6004-2"
         style="fill:#ec0000;fill-opacity:1;fill-rule:evenodd;stroke:#ec0000;stroke-width:0.625;stroke-linejoin:round;stroke-opacity:1"
         d="M 8.7185878,4.0337352 -2.2072895,0.01601326 8.7185884,-4.0017078 c -1.7454984,2.3720609 -1.7354408,5.6174519 -6e-7,8.035443 z"
         transform="matrix(0.3,0,0,0.3,-0.69,0)"
         inkscape:connector-curvature="0" />
    </marker>
    <inkscape:path-effect
       is_visible="true"
       id="path-effect4522"
       effect="spiro" />
    <inkscape:path-effect
       is_visible="true"
       id="path-effect4526"
       effect="spiro" />
    <inkscape:path-effect
       is_visible="true"
       id="path-effect4522-7"
       effect="spiro" />
    <inkscape:path-effect
       is_visible="true"
       id="path-effect4526-0"
       effect="spiro" />
    <inkscape:path-effect
       is_visible="true"
       id="path-effect1379-2"
       effect="spiro" />
    <inkscape:path-effect
       is_visible="true"
       id="path-effect1375-8"
       effect="spiro" />
    <inkscape:path-effect
       is_visible="true"
       id="path-effect1379-8"
       effect="spiro" />
    <inkscape:path-effect
       is_visible="true"
       id="path-effect1375-7"
       effect="spiro" />
    <inkscape:path-effect
       is_visible="true"
       id="path-effect1379-0"
       effect="spiro" />
    <inkscape:path-effect
       is_visible="true"
       id="path-effect1375-73"
       effect="spiro" />
    <inkscape:path-effect
       is_visible="true"
       id="path-effect1379-86"
       effect="spiro" />
    <marker
       inkscape:isstock="true"
       style="overflow:visible"
       id="marker5602-2"
       refX="0"
       refY="0"
       orient="auto"
       inkscape:stockid="Arrow2Sstart">
      <path
         inkscape:connector-curvature="0"
         transform="matrix(0.3,0,0,0.3,-0.69,0)"
         d="M 8.7185878,4.0337352 -2.2072895,0.01601326 8.7185884,-4.0017078 c -1.7454984,2.3720609 -1.7354408,5.6174519 -6e-7,8.035443 z"
         style="fill:#ec0000;fill-opacity:1;fill-rule:evenodd;stroke:#ec0000;stroke-width:0.625;stroke-linejoin:round;stroke-opacity:1"
         id="path5600-8" />
    </marker>
    <marker
       inkscape:isstock="true"
       style="overflow:visible"
       id="marker5606-0"
       refX="0"
       refY="0"
       orient="auto"
       inkscape:stockid="Arrow2Sstart">
      <path
         transform="matrix(0.3,0,0,0.3,-0.69,0)"
         d="M 8.7185878,4.0337352 -2.2072895,0.01601326 8.7185884,-4.0017078 c -1.7454984,2.3720609 -1.7354408,5.6174519 -6e-7,8.035443 z"
         style="fill:#ec0000;fill-opacity:1;fill-rule:evenodd;stroke:#ec0000;stroke-width:0.625;stroke-linejoin:round;stroke-opacity:1"
         id="path5604-2"
         inkscape:connector-curvature="0" />
    </marker>
    <marker
       inkscape:stockid="Arrow2Sstart"
       orient="auto"
       refY="0"
       refX="0"
       id="marker6006-8"
       style="overflow:visible"
       inkscape:isstock="true">
      <path
         id="path6004-7"
         style="fill:#ec0000;fill-opacity:1;fill-rule:evenodd;stroke:#ec0000;stroke-width:0.625;stroke-linejoin:round;stroke-opacity:1"
         d="M 8.7185878,4.0337352 -2.2072895,0.01601326 8.7185884,-4.0017078 c -1.7454984,2.3720609 -1.7354408,5.6174519 -6e-7,8.035443 z"
         transform="matrix(0.3,0,0,0.3,-0.69,0)"
         inkscape:connector-curvature="0" />
    </marker>
    <marker
       inkscape:isstock="true"
       style="overflow:visible"
       id="marker5602-7"
       refX="0"
       refY="0"
       orient="auto"
       inkscape:stockid="Arrow2Sstart">
      <path
         inkscape:connector-curvature="0"
         transform="matrix(0.3,0,0,0.3,-0.69,0)"
         d="M 8.7185878,4.0337352 -2.2072895,0.01601326 8.7185884,-4.0017078 c -1.7454984,2.3720609 -1.7354408,5.6174519 -6e-7,8.035443 z"
         style="fill:#ec0000;fill-opacity:1;fill-rule:evenodd;stroke:#ec0000;stroke-width:0.625;stroke-linejoin:round;stroke-opacity:1"
         id="path5600-9" />
    </marker>
    <marker
       inkscape:isstock="true"
       style="overflow:visible"
       id="marker5606-1"
       refX="0"
       refY="0"
       orient="auto"
       inkscape:stockid="Arrow2Sstart">
      <path
         transform="matrix(0.3,0,0,0.3,-0.69,0)"
         d="M 8.7185878,4.0337352 -2.2072895,0.01601326 8.7185884,-4.0017078 c -1.7454984,2.3720609 -1.7354408,5.6174519 -6e-7,8.035443 z"
         style="fill:#ec0000;fill-opacity:1;fill-rule:evenodd;stroke:#ec0000;stroke-width:0.625;stroke-linejoin:round;stroke-opacity:1"
         id="path5604-26"
         inkscape:connector-curvature="0" />
    </marker>
    <marker
       inkscape:stockid="Arrow2Sstart"
       orient="auto"
       refY="0"
       refX="0"
       id="marker6006-0"
       style="overflow:visible"
       inkscape:isstock="true">
      <path
         id="path6004-26"
         style="fill:#ec0000;fill-opacity:1;fill-rule:evenodd;stroke:#ec0000;stroke-width:0.625;stroke-linejoin:round;stroke-opacity:1"
         d="M 8.7185878,4.0337352 -2.2072895,0.01601326 8.7185884,-4.0017078 c -1.7454984,2.3720609 -1.7354408,5.6174519 -6e-7,8.035443 z"
         transform="matrix(0.3,0,0,0.3,-0.69,0)"
         inkscape:connector-curvature="0" />
    </marker>
  </defs>
  <sodipodi:namedview
     inkscape:document-rotation="0"
     inkscape:pagecheckerboard="false"
     inkscape:window-maximized="1"
     inkscape:window-y="-8"
     inkscape:window-x="-8"
     inkscape:window-height="961"
     inkscape:window-width="1280"
     units="px"
     showgrid="false"
     inkscape:current-layer="layer1"
     inkscape:document-units="mm"
     inkscape:cy="507.81777"
     inkscape:cx="866.03919"
     inkscape:zoom="2"
     inkscape:pageshadow="2"
     inkscape:pageopacity="1"
     borderopacity="1.0"
     bordercolor="#666666"
     pagecolor="#000000"
     id="base" />
  <metadata
     id="metadata5">
    <rdf:RDF>
      <cc:Work
         rdf:about="">
        <dc:format>image/svg+xml</dc:format>
        <dc:type
           rdf:resource="http://purl.org/dc/dcmitype/StillImage" />
        <dc:title />
      </cc:Work>
    </rdf:RDF>
  </metadata>
  <g
     style="display:none"
     inkscape:label="passive"
     id="layer4"
     inkscape:groupmode="layer">
    <g
       id="g1552">
      <path
         transform="translate(0,-11.249983)"
         style="display:inline;fill:#ffffff;fill-opacity:1;stroke:none;stroke-width:0.1091085px;stroke-linecap:butt;stroke-linejoin:miter;stroke-opacity:1"
         d="m 230.56511,129.30056 c -0.88876,-2.4185 -6.94386,-14.517 -2.38001,-18.92298 2.89916,-2.79886 7.87864,1.9919 11.90004,1.9919 4.02139,0 9.46775,-4.76438 11.90003,-1.9919 4.1585,4.74018 -1.46517,16.51016 -2.38001,18.92298 -1.16902,3.08321 -18.0192,2.77796 -19.04005,0 z"
         id="path1407-1"
         inkscape:connector-curvature="0"
         sodipodi:nodetypes="saasss" />
      <path
         transform="translate(0,-11.249983)"
         style="display:inline;fill:#ffffff;fill-opacity:1;stroke:none;stroke-width:0.1091085px;stroke-linecap:butt;stroke-linejoin:miter;stroke-opacity:1"
         d="m 257.69943,137.56509 c 2.4185,-0.88877 14.517,-6.94386 18.92298,-2.38001 2.79886,2.89916 -1.9919,7.87864 -1.9919,11.90003 0,4.0214 4.76438,9.46776 1.9919,11.90004 -4.74018,4.1585 -16.51016,-1.46518 -18.92298,-2.38001 -3.08321,-1.16902 -2.77796,-18.0192 0,-19.04005 z"
         id="path1407-1-8"
         inkscape:connector-curvature="0"
         sodipodi:nodetypes="saasss" />
      <path
         transform="translate(0,-11.249983)"
         style="display:inline;fill:#ffffff;fill-opacity:1;stroke:none;stroke-width:0.10910847px;stroke-linecap:butt;stroke-linejoin:miter;stroke-opacity:1"
         d="m 249.43489,164.6994 c 0.88877,2.41851 6.94386,14.51701 2.38001,18.92298 -2.89916,2.79887 -7.87864,-1.99189 -11.90003,-1.99189 -4.0214,0 -9.46776,4.76438 -11.90004,1.99189 -4.1585,-4.74017 1.46518,-16.51016 2.38001,-18.92298 1.16902,-3.08321 18.0192,-2.77795 19.04005,0 z"
         id="path1407-1-1"
         inkscape:connector-curvature="0"
         sodipodi:nodetypes="saasss" />
      <path
         transform="translate(0,-11.249983)"
         style="display:inline;fill:#ffffff;fill-opacity:1;stroke:none;stroke-width:0.1091085px;stroke-linecap:butt;stroke-linejoin:miter;stroke-opacity:1"
         d="m 222.30058,156.43487 c -2.41851,0.88876 -14.51701,6.94386 -18.92298,2.38001 -2.79887,-2.89916 1.99189,-7.87864 1.99189,-11.90004 0,-4.02139 -4.76438,-9.46775 -1.99189,-11.90003 4.74017,-4.1585 16.51016,1.46517 18.92298,2.38001 3.08321,1.16902 2.77795,18.0192 0,19.04005 z"
         id="path1407-1-5"
         inkscape:connector-curvature="0"
         sodipodi:nodetypes="saasss" />
    </g>
  </g>
  <g
     style="display:inline"
     transform="translate(0,-11.249983)"
     id="layer1"
     inkscape:groupmode="layer"
     inkscape:label="mid">
    <circle
       r="10"
       cy="147"
       cx="240.8"
       id="path1400"
       style="display:inline;opacity:1;fill:#ffffff;fill-opacity:1;stroke:none;stroke-width:0;stroke-linecap:butt;stroke-linejoin:round;stroke-miterlimit:4;stroke-dasharray:none;stroke-dashoffset:0;stroke-opacity:1;paint-order:normal" />
  </g>
  <g
     style="display:none"
     inkscape:label="arm_left"
     id="layer3"
     inkscape:groupmode="layer">
    <path
       sodipodi:nodetypes="sacas"
       inkscape:connector-curvature="0"
       id="path1407-7"
       d="m 232,147.00609 c -0.006,5.80845 -11.1542,12.49934 -16.32282,9.05069 -2.56295,-1.71007 -2.22245,-7.58167 1.25561,-9.05069 -3.35043,-1.81723 -3.81856,-7.34062 -1.25561,-9.05069 5.16862,-3.44864 16.3288,3.10439 16.32282,9.05069 z"
       style="display:inline;fill:#ffffff;fill-opacity:1;stroke:none;stroke-width:0.109789px;stroke-linecap:butt;stroke-linejoin:miter;stroke-opacity:1"
       transform="translate(0,-11.249983)" />
  </g>
  <g
     style="display:none"
     inkscape:label="arm_right"
     id="layer6"
     inkscape:groupmode="layer">
    <path
       sodipodi:nodetypes="sacas"
       inkscape:connector-curvature="0"
       id="path1407-3"
       d="m 248,146.99392 c 0.006,-5.80845 11.1542,-12.49934 16.32282,-9.0507 2.56295,1.71008 2.22245,7.58168 -1.25561,9.0507 3.35043,1.81723 3.81856,7.34061 1.25561,9.05069 -5.16862,3.44864 -16.3288,-3.10439 -16.32282,-9.05069 z"
       style="display:inline;fill:#ffffff;fill-opacity:1;stroke:none;stroke-width:0.109789px;stroke-linecap:butt;stroke-linejoin:miter;stroke-opacity:1"
       transform="translate(0,-11.249983)" />
  </g>
  <g
     style="display:none"
     inkscape:label="arm_up"
     id="layer2"
     inkscape:groupmode="layer">
    <path
       sodipodi:nodetypes="sacas"
       inkscape:connector-curvature="0"
       id="path1407"
       d="m 239.99391,138.99998 c -5.80845,-0.006 -12.49933,-11.1542 -9.05069,-16.32282 1.71007,-2.56295 7.58168,-2.22245 9.05069,1.2556 1.81724,-3.35042 7.34062,-3.81855 9.05069,-1.2556 3.44865,5.16862 -3.10438,16.3288 -9.05069,16.32282 z"
       style="display:inline;fill:#ffffff;fill-opacity:1;stroke:none;stroke-width:0.10978859px;stroke-linecap:butt;stroke-linejoin:miter;stroke-opacity:1"
       transform="translate(0,-11.249983)" />
  </g>
  <g
     style="display:none"
     inkscape:label="arm_down"
     id="layer5"
     inkscape:groupmode="layer">
    <path
       sodipodi:nodetypes="sacas"
       inkscape:connector-curvature="0"
       id="path1407-0"
       d="m 240.00609,154.99999 c 5.80845,0.006 12.49933,11.1542 9.05069,16.32282 -1.71007,2.56295 -7.58168,2.22245 -9.05069,-1.2556 -1.81724,3.35042 -7.34062,3.81855 -9.05069,1.2556 -3.44864,-5.16862 3.10438,-16.3288 9.05069,-16.32282 z"
       style="display:inline;fill:#ffffff;fill-opacity:1;stroke:none;stroke-width:0.109789px;stroke-linecap:butt;stroke-linejoin:miter;stroke-opacity:1"
       transform="translate(0,-11.249983)" />
  </g>
</svg>
